
<svg width="24" height="30" viewBox="0 0 24 30" fill="none" xmlns="http://www.w3.org/2000/svg">
<path d="M16.3262 5.71131H3.04396C1.79766 5.71131 0.7854 6.72357 0.7854 7.96988V27.0272C0.7854 28.2735 1.79766 29.2858 3.04396 29.2858H16.3262C17.5725 29.2858 18.5847 28.2735 18.5847 27.0272V7.96988C18.5789 6.72357 17.5666 5.71131 16.3262 5.71131ZM16.9991 27.0214C16.9991 27.3959 16.6948 27.7001 16.3203 27.7001H3.03811C2.66363 27.7001 2.35937 27.3959 2.35937 27.0214V7.96988C2.35937 7.5954 2.66363 7.29114 3.03811 7.29114H16.3203C16.6948 7.29114 16.9991 7.5954 16.9991 7.96988V27.0214Z" fill="#9A9A9A"/>
<path d="M21.4028 0.714355H8.12059C6.87428 0.714355 5.86203 1.72661 5.86203 2.97292C5.86203 3.41176 6.2131 3.76283 6.65194 3.76283C7.09078 3.76283 7.44185 3.41176 7.44185 2.97292C7.44185 2.59844 7.74611 2.29418 8.12059 2.29418H21.4028C21.7773 2.29418 22.0815 2.59844 22.0815 2.97292V22.0303C22.0815 22.4047 21.7773 22.709 21.4028 22.709C20.964 22.709 20.6129 23.0601 20.6129 23.4989C20.6129 23.9378 20.964 24.2888 21.4028 24.2888C22.6491 24.2888 23.6614 23.2766 23.6614 22.0303V2.97292C23.6614 1.72661 22.6491 0.714355 21.4028 0.714355Z" fill="#9A9A9A"/>
</svg>
