
<svg width="15" height="20" viewBox="0 0 15 20" fill="none" xmlns="http://www.w3.org/2000/svg">
<path d="M14.0714 5.21429L9.07143 0.214286C8.92857 0.0714285 8.78571 0 8.57143 0H1.42857C0.642857 0 0 0.642857 0 1.42857V18.5714C0 19.3571 0.642857 20 1.42857 20H12.8571C13.6429 20 14.2857 19.3571 14.2857 18.5714V5.71429C14.2857 5.5 14.2143 5.35714 14.0714 5.21429ZM8.57143 1.71429L12.5714 5.71429H8.57143V1.71429ZM12.8571 18.5714H1.42857V1.42857H7.14286V5.71429C7.14286 6.5 7.78571 7.14286 8.57143 7.14286H12.8571V18.5714Z" fill="#767676"/>
<path d="M2.85714 14.2857H11.4286V15.7143H2.85714V14.2857Z" fill="#767676"/>
<path d="M2.85714 10H11.4286V11.4286H2.85714V10Z" fill="#767676"/>
</svg>
