<svg width="20" height="16" viewBox="0 0 20 16" fill="none" xmlns="http://www.w3.org/2000/svg">
<path d="M16.75 0.476191H16.75C17.4585 0.476144 18.1402 0.747216 18.6552 1.2338C19.1686 1.71884 19.4775 2.38138 19.5192 3.08625L19.5238 3.25647V12.75V12.75C19.5239 13.4585 19.2528 14.1402 18.7662 14.6552C18.2812 15.1686 17.6186 15.4775 16.9138 15.5192L16.7435 15.5238H3.25H3.24997C2.54146 15.5239 1.8598 15.2528 1.3448 14.7662C0.831447 14.2812 0.522503 13.6186 0.480817 12.9138L0.476191 12.7435V3.25V3.24997C0.476144 2.54146 0.747217 1.8598 1.2338 1.34481C1.71884 0.831447 2.38137 0.522503 3.08623 0.480817L3.25647 0.476191H16.75ZM18.9762 5.373V4.58421L18.2782 4.95162L10.1282 9.24162L10.1276 9.24195C10.094 9.2597 10.0571 9.27026 10.0192 9.27296C9.98536 9.27537 9.95146 9.27149 9.91914 9.26154L9.85759 9.23461L1.72178 4.95261L1.02381 4.58526V5.374V12.75L1.02381 12.75C1.02383 13.3087 1.23393 13.847 1.61239 14.258C1.99085 14.6689 2.51001 14.9226 3.06682 14.9686L3.07648 14.9694L3.08617 14.9698L3.23017 14.9758L3.24008 14.9762H3.25H16.75H16.75C17.3089 14.9761 17.8474 14.7659 18.2584 14.3871C18.6694 14.0084 18.9229 13.4889 18.9686 12.9319L18.9694 12.9225L18.9698 12.913L18.9758 12.77L18.9762 12.76V12.75V5.373ZM16.77 1.02423L16.76 1.02381H16.75H3.25L3.24998 1.02381C2.69128 1.02383 2.15302 1.23392 1.74204 1.61239C1.33105 1.99085 1.0774 2.51001 1.03142 3.06682L1.03063 3.07648L1.03022 3.08618L1.02422 3.23018L1.02381 3.24008V3.25V3.679V3.96651L1.27824 4.1004L9.77824 8.5734L10 8.69011L10.2218 8.57338L18.7218 4.09938L18.9762 3.96548V3.678V3.25V3.24996C18.9761 2.69106 18.7659 2.15263 18.3871 1.74161C18.0084 1.33059 17.4889 1.07707 16.9319 1.0314L16.9224 1.03063L16.913 1.03023L16.77 1.02423Z" fill="#A2A2A2" strokeWidth="0.952381"/>
</svg>
