<svg width="24" height="22" viewBox="0 0 24 22" fill="none" xmlns="http://www.w3.org/2000/svg">
<path d="M20.7686 8.55008H16.4943C16.155 8.55008 15.86 8.80272 15.86 9.13273C15.86 9.46274 16.155 9.71539 16.4943 9.71539H20.7686C21.6047 9.71539 22.2714 10.3315 22.2714 11.0633V18.5867C22.2714 19.3186 21.6047 19.9347 20.7686 19.9347H3.67143C2.83528 19.9347 2.16857 19.3186 2.16857 18.5867V11.0633C2.16857 10.3315 2.83528 9.71539 3.67143 9.71539H8.48C8.81928 9.71539 9.11429 9.46274 9.11429 9.13273C9.11429 8.80272 8.81928 8.55008 8.48 8.55008H3.67143C2.15672 8.55008 0.9 9.6715 0.9 11.0633V18.5867C0.9 19.9786 2.15672 21.1 3.67143 21.1H20.7686C22.2833 21.1 23.54 19.9786 23.54 18.5867V11.0633C23.54 9.6715 22.2833 8.55008 20.7686 8.55008ZM11.7389 1.07059L11.8059 1.1448L11.7389 1.07059L7.01047 5.34208C6.88463 5.45577 6.81722 5.60261 6.81722 5.75415C6.81722 5.90568 6.88463 6.05253 7.01047 6.16621C7.26226 6.39367 7.64075 6.39367 7.89254 6.16621L11.5456 2.86612V14.2006C11.5456 14.5306 11.8407 14.7833 12.1799 14.7833C12.5192 14.7833 12.8142 14.5306 12.8142 14.2006V2.86612L16.4673 6.16621C16.593 6.27971 16.7506 6.3368 16.9084 6.3368C17.0661 6.3368 17.2238 6.27971 17.3494 6.16621C17.4752 6.05253 17.5426 5.90568 17.5426 5.75415C17.5426 5.60261 17.4752 5.45577 17.3494 5.34208L12.621 1.07059L12.5539 1.1448L12.621 1.07059C12.3692 0.843136 11.9907 0.843136 11.7389 1.07059Z" fill="#D8D8D8" stroke="#D8D8D8" stroke-width="0.2"/>
</svg>
