
<svg width="23" height="22" viewBox="0 0 23 22" fill="none" xmlns="http://www.w3.org/2000/svg">
<path d="M16.0501 13.9628C16.2509 13.4263 16.3528 12.8578 16.3508 12.2849C16.3508 11.013 15.8455 9.79311 14.9461 8.8937C14.0467 7.9943 12.8268 7.48901 11.5548 7.48901C10.989 7.48967 10.4279 7.59148 9.89795 7.78963L11.0235 8.95016C11.1946 8.92279 11.3676 8.90876 11.5409 8.90821C12.4402 8.90634 13.3038 9.26038 13.943 9.89305C14.5822 10.5257 14.9452 11.3856 14.9525 12.2849C14.952 12.4582 14.9379 12.6312 14.9106 12.8023L16.0501 13.9628Z" fill="#DBE9EF" fill-opacity="0.6"/>
<path fill-rule="evenodd" clip-rule="evenodd" d="M16.4953 18.4285L15.4396 17.3379C14.1447 17.8914 12.7511 18.1768 11.3428 18.1768C7.4068 18.1768 3.82735 15.9816 1.69505 12.2833C2.71835 10.4713 4.19209 8.95424 5.97362 7.87886L4.95991 6.85815C2.98905 8.12712 1.37828 9.88236 0.282844 11.9547L0.101074 12.2833L0.282844 12.6188C2.63885 16.9743 6.77061 19.61 11.3428 19.61C13.1274 19.6096 14.8888 19.2057 16.4953 18.4285ZM14.321 16.2193L13.3073 15.2056C12.782 15.5307 12.1773 15.7049 11.5595 15.7089C11.1107 15.7089 10.6662 15.6202 10.2518 15.4478C9.83731 15.2754 9.46105 15.0227 9.14462 14.7043C8.82819 14.3859 8.57784 14.0081 8.40798 13.5926C8.23811 13.1771 8.15209 12.7321 8.15486 12.2833C8.16273 11.6726 8.33675 11.0757 8.65822 10.5565L7.6445 9.54275C6.99044 10.4652 6.68387 11.5893 6.77908 12.716C6.87429 13.8428 7.36514 14.8995 8.16472 15.6991C8.96429 16.4986 10.021 16.9895 11.1478 17.0847C12.2745 17.1799 13.3986 16.8733 14.321 16.2193Z" fill="#DBE9EF" fill-opacity="0.6"/>
<path d="M22.4133 11.9577C20.0573 7.60221 15.9255 4.96655 11.3533 4.96655C10.1084 4.96948 8.87191 5.17005 7.68994 5.5608L8.81551 6.69336C9.64456 6.4791 10.497 6.36873 11.3533 6.36478C15.2893 6.36478 18.8688 8.55999 21.0011 12.2583C20.2189 13.6304 19.1819 14.8405 17.9459 15.8238L18.9387 16.8165C20.3691 15.6625 21.5571 14.2369 22.4342 12.6218L22.616 12.2863L22.4133 11.9577Z" fill="#DBE9EF" fill-opacity="0.6"/>
<line x1="1.12858" y1="1" x2="20.9734" y2="20.8448" stroke="#DBE9EF" stroke-opacity="0.6" stroke-width="1.59605" stroke-linecap="round"/>
</svg>
