
<svg width="22" height="22" viewBox="0 0 22 14" fill="none" xmlns="http://www.w3.org/2000/svg">
<path d="M21.3643 6.68258C19.1073 2.51933 15.1493 0 10.7692 0C6.38921 0 2.42442 2.51933 0.187524 6.68258L0 6.99666L0.174129 7.31742C2.43111 11.4807 6.38921 14 10.7692 14C15.1493 14 19.114 11.5141 21.3643 7.31742L21.5385 6.99666L21.3643 6.68258ZM10.7692 12.6301C6.99866 12.6301 3.53617 10.5317 1.52698 6.99666C3.53617 3.46157 6.99866 1.36325 10.7692 1.36325C14.5398 1.36325 17.9621 3.46826 20.0048 6.99666C17.9621 10.5317 14.5331 12.6301 10.7692 12.6301Z" fill="#DBE9EF" fill-opacity="0.6"/>
<path d="M10.9636 2.43079C10.0556 2.4374 9.16983 2.71238 8.41828 3.22099C7.66674 3.7296 7.08312 4.44903 6.74111 5.28842C6.39911 6.1278 6.31408 7.04949 6.49675 7.93708C6.67942 8.82466 7.1216 9.63831 7.76745 10.2753C8.4133 10.9123 9.23385 11.344 10.1254 11.5159C11.017 11.6878 11.9397 11.5922 12.7769 11.2412C13.6141 10.8902 14.3283 10.2995 14.8292 9.54378C15.3302 8.78802 15.5954 7.90108 15.5915 6.99499C15.5888 6.39184 15.4669 5.79514 15.2328 5.23908C14.9986 4.68303 14.6568 4.17854 14.2269 3.75454C13.797 3.33054 13.2874 2.99536 12.7275 2.7682C12.1675 2.54105 11.5681 2.42638 10.9636 2.43079ZM10.9636 10.2628C10.3222 10.2562 9.69704 10.0606 9.16663 9.70064C8.63623 9.34067 8.22425 8.83235 7.98244 8.23951C7.74063 7.64668 7.67976 6.99577 7.80749 6.36853C7.93521 5.74129 8.24584 5.16569 8.70034 4.71403C9.15485 4.26237 9.73298 3.95478 10.3621 3.82989C10.9912 3.70501 11.6433 3.7684 12.2365 4.0121C12.8296 4.2558 13.3374 4.66895 13.696 5.19965C14.0546 5.73035 14.248 6.35494 14.252 6.99499C14.2538 7.42575 14.1699 7.85257 14.0051 8.25072C13.8403 8.64886 13.5979 9.0104 13.292 9.31437C12.9861 9.61835 12.6228 9.8587 12.2231 10.0215C11.8234 10.1843 11.3953 10.2663 10.9636 10.2628Z" fill="#DBE9EF" fill-opacity="0.6"/>
</svg>
