<svg width="24" height="22" viewBox="0 0 24 22" fill="none" xmlns="http://www.w3.org/2000/svg">
<path d="M20.7663 7.23055H16.4925C16.1434 7.23055 15.8583 7.51572 15.8583 7.86477C15.8583 8.21382 16.1434 8.49899 16.4925 8.49899H20.7663C21.5925 8.49899 22.269 9.17542 22.269 10.0017V18.3289C22.269 19.1551 21.5925 19.8316 20.7663 19.8316H3.67112C2.84488 19.8316 2.16845 19.1551 2.16845 18.3289V10.0017C2.16845 9.17542 2.84488 8.49899 3.67112 8.49899H8.47914C8.82819 8.49899 9.11336 8.21382 9.11336 7.86477C9.11336 7.51572 8.82819 7.23055 8.47914 7.23055H3.67112C2.14678 7.23055 0.9 8.47732 0.9 10.0017V18.3289C0.9 19.8532 2.14678 21.1 3.67112 21.1H20.7663C22.2906 21.1 23.5374 19.8532 23.5374 18.3289V10.0017C23.5374 8.47732 22.2906 7.23055 20.7663 7.23055ZM16.4619 10.4385L12.8129 14.0875V1.53422C12.8129 1.18517 12.5277 0.9 12.1787 0.9C11.8296 0.9 11.5444 1.18517 11.5444 1.53422V14.0875L7.89544 10.4385C7.77044 10.3135 7.61168 10.2489 7.45077 10.2489C7.28986 10.2489 7.1311 10.3135 7.0061 10.4385C6.75336 10.6912 6.75336 11.0751 7.0061 11.3278L11.734 16.0557C11.9867 16.3084 12.3706 16.3084 12.6233 16.0557L17.3512 11.3278C17.6039 11.0751 17.6039 10.6912 17.3512 10.4385C17.0985 10.1857 16.7146 10.1857 16.4619 10.4385Z" fill="#D8D8D8" stroke="#D8D8D8" stroke-width="0.2"/>
</svg>
