
<svg width="16" height="16" viewBox="0 0 16 16" fill="none" xmlns="http://www.w3.org/2000/svg">
<path d="M8 0C3.5888 0 0 3.5888 0 8.00009C0 12.4113 3.5888 16 8 16C12.4112 16 16 12.4113 16 8.00009C16.0001 3.58889 12.4112 0 8 0ZM8 14.6132C4.35351 14.6132 1.38685 11.6467 1.38685 8.00019C1.38685 4.3536 4.35351 1.38694 8 1.38694C11.6465 1.38694 14.6131 4.3536 14.6131 8.00019C14.6132 11.6466 11.6466 14.6132 8 14.6132Z" fill="#D74F4F"/>
<path d="M8 10.1268C8.38305 10.1268 8.69343 9.81631 8.69343 9.43336V3.52722C8.69343 3.14427 8.38305 2.8338 8 2.8338C7.61695 2.8338 7.30657 3.14427 7.30657 3.52722V9.43336C7.30657 9.81631 7.61704 10.1268 8 10.1268Z" fill="#D74F4F"/>
<path d="M8 12.473C8.47636 12.473 8.86253 12.0868 8.86253 11.6104C8.86253 11.1341 8.47636 10.7479 8 10.7479C7.52364 10.7479 7.13747 11.1341 7.13747 11.6104C7.13747 12.0868 7.52364 12.473 8 12.473Z" fill="#D74F4F"/>
</svg>
