
<svg viewBox="0 0 100 100" fill="none" xmlns="http://www.w3.org/2000/svg">
<path d="M56.2499 100H43.7499C40.8332 100 37.4999 97.5 37.4999 92.5V83.75C37.4999 79.5834 35.4166 75.8334 32.0832 72.9167C24.5832 67.0834 20.8332 58.7501 20.8332 49.5834C21.2499 33.7501 34.1666 21.2502 49.5832 20.8335C57.4999 20.8335 64.9999 23.7501 70.4166 29.1668C75.8332 34.5835 79.1666 42.0834 79.1666 50.0001C79.1666 58.7501 75.4166 67.0834 68.3332 72.5001C64.5832 75.4167 62.4999 80 62.4999 84.1667V93.75C62.4999 97.0833 59.5832 100 56.2499 100ZM49.9999 25.0001C36.6666 25.0001 25.4166 36.2501 24.9999 49.5834C24.9999 57.5001 28.3332 65.0001 34.5832 69.5834C39.1666 73.3334 41.6666 78.3334 41.6666 83.75V92.5C41.6666 93.3334 41.6666 95.8334 43.7499 95.8334H56.2499C57.4999 95.8334 58.3332 95 58.3332 93.75V84.1667C58.3332 78.75 61.2499 72.9167 65.8332 69.1667C71.6666 64.5834 74.9999 57.5001 74.9999 50.0001C74.9999 43.3334 72.4999 37.0835 67.4999 32.0835C62.9166 27.5001 56.6666 25.0001 49.9999 25.0001Z" fill="url(#paint0_linear_302_5757)"/>
<path d="M60.4167 87.5H39.5833C38.3333 87.5 37.5 86.6667 37.5 85.4167C37.5 84.1667 38.3333 83.3334 39.5833 83.3334H60.4167C61.6667 83.3334 62.5 84.1667 62.5 85.4167C62.5 86.6667 61.6667 87.5 60.4167 87.5Z" fill="url(#paint1_linear_302_5757)"/>
<path d="M50.0001 12.5C48.7501 12.5 47.9168 11.6666 47.9168 10.4166V2.08333C47.9168 0.833332 48.7501 0 50.0001 0C51.2501 0 52.0834 0.833332 52.0834 2.08333V10.4166C52.0834 11.6666 51.2501 12.5 50.0001 12.5Z" fill="url(#paint2_linear_302_5757)"/>
<path d="M77.9166 24.1668C77.4999 24.1668 76.6666 24.1668 76.2499 23.7501C75.4166 22.9168 75.4166 21.6668 76.2499 20.8334L82.0833 15.0001C82.9166 14.1668 84.1666 14.1668 84.9999 15.0001C85.8332 15.8335 85.8332 17.0835 84.9999 17.9168L79.1666 23.7501C79.1666 23.7501 78.3333 24.1668 77.9166 24.1668Z" fill="url(#paint3_linear_302_5757)"/>
<path d="M97.9167 52.083H89.5833C88.3333 52.083 87.5 51.2497 87.5 49.9997C87.5 48.7497 88.3333 47.9164 89.5833 47.9164H97.9167C99.1667 47.9164 100 48.7497 100 49.9997C100 51.2497 99.1667 52.083 97.9167 52.083Z" fill="url(#paint4_linear_302_5757)"/>
<path d="M83.7499 85.833C83.3333 85.833 82.4999 85.833 82.0833 85.4163L76.2499 79.583C75.4166 78.7497 75.4166 77.4997 76.2499 76.6664C77.0833 75.833 78.3333 75.833 79.1666 76.6664L84.9999 82.4997C85.8332 83.333 85.8332 84.583 84.9999 85.4163C84.9999 85.833 84.5833 85.833 83.7499 85.833Z" fill="url(#paint5_linear_302_5757)"/>
<path d="M16.25 85.833C15.8333 85.833 15 85.833 14.5833 85.4163C13.75 84.583 13.75 83.333 14.5833 82.4997L20.4166 76.6664C21.25 75.833 22.5 75.833 23.3333 76.6664C24.1666 77.4997 24.1666 78.7497 23.3333 79.583L17.5 85.4163C17.0833 85.833 16.6666 85.833 16.25 85.833Z" fill="url(#paint6_linear_302_5757)"/>
<path d="M10.4167 52.083H2.08333C0.833333 52.083 0 51.2497 0 49.9997C0 48.7497 0.833333 47.9164 2.08333 47.9164H10.4167C11.6667 47.9164 12.5 48.7497 12.5 49.9997C12.5 51.2497 11.6667 52.083 10.4167 52.083Z" fill="url(#paint7_linear_302_5757)"/>
<path d="M22.0833 24.1665C21.6666 24.1665 20.8333 24.1665 20.4166 23.7498L14.5833 17.4999C13.75 16.6665 13.75 15.4165 14.5833 14.5832C15.4166 13.7499 16.6666 13.7499 17.5 14.5832L23.3333 20.4165C24.1666 21.2498 24.1666 22.4998 23.3333 23.3332C22.9166 23.7498 22.5 24.1665 22.0833 24.1665Z" fill="url(#paint8_linear_302_5757)"/>
<path d="M66.6667 52.0832C65.4167 52.0832 64.5834 51.2499 64.5834 49.9999C64.5834 42.0833 57.9168 35.4166 50.0001 35.4166C48.7501 35.4166 47.9168 34.5833 47.9168 33.3333C47.9168 32.0833 48.7501 31.2499 50.0001 31.2499C60.4168 31.2499 68.7501 39.5833 68.7501 49.9999C68.7501 51.2499 67.9167 52.0832 66.6667 52.0832Z" fill="url(#paint9_linear_302_5757)"/>
<defs>
<linearGradient id="paint0_linear_302_5757" x1="-12.5" y1="0" x2="131.349" y2="61.5894" gradientUnits="userSpaceOnUse">
<stop stop-color="#2AA2CF"/>
<stop offset="1" stop-color="#A9419E"/>
</linearGradient>
<linearGradient id="paint1_linear_302_5757" x1="-12.5" y1="0" x2="131.349" y2="61.5894" gradientUnits="userSpaceOnUse">
<stop stop-color="#2AA2CF"/>
<stop offset="1" stop-color="#A9419E"/>
</linearGradient>
<linearGradient id="paint2_linear_302_5757" x1="-12.5" y1="0" x2="131.349" y2="61.5894" gradientUnits="userSpaceOnUse">
<stop stop-color="#2AA2CF"/>
<stop offset="1" stop-color="#A9419E"/>
</linearGradient>
<linearGradient id="paint3_linear_302_5757" x1="-12.5" y1="0" x2="131.349" y2="61.5894" gradientUnits="userSpaceOnUse">
<stop stop-color="#2AA2CF"/>
<stop offset="1" stop-color="#A9419E"/>
</linearGradient>
<linearGradient id="paint4_linear_302_5757" x1="-12.5" y1="0" x2="131.349" y2="61.5894" gradientUnits="userSpaceOnUse">
<stop stop-color="#2AA2CF"/>
<stop offset="1" stop-color="#A9419E"/>
</linearGradient>
<linearGradient id="paint5_linear_302_5757" x1="-12.5" y1="0" x2="131.349" y2="61.5894" gradientUnits="userSpaceOnUse">
<stop stop-color="#2AA2CF"/>
<stop offset="1" stop-color="#A9419E"/>
</linearGradient>
<linearGradient id="paint6_linear_302_5757" x1="-12.5" y1="0" x2="131.349" y2="61.5894" gradientUnits="userSpaceOnUse">
<stop stop-color="#2AA2CF"/>
<stop offset="1" stop-color="#A9419E"/>
</linearGradient>
<linearGradient id="paint7_linear_302_5757" x1="-12.5" y1="0" x2="131.349" y2="61.5894" gradientUnits="userSpaceOnUse">
<stop stop-color="#2AA2CF"/>
<stop offset="1" stop-color="#A9419E"/>
</linearGradient>
<linearGradient id="paint8_linear_302_5757" x1="-12.5" y1="0" x2="131.349" y2="61.5894" gradientUnits="userSpaceOnUse">
<stop stop-color="#2AA2CF"/>
<stop offset="1" stop-color="#A9419E"/>
</linearGradient>
<linearGradient id="paint9_linear_302_5757" x1="-12.5" y1="0" x2="131.349" y2="61.5894" gradientUnits="userSpaceOnUse">
<stop stop-color="#2AA2CF"/>
<stop offset="1" stop-color="#A9419E"/>
</linearGradient>
</defs>
</svg>
