<svg width="22" height="19" viewBox="0 0 22 19" fill="none" xmlns="http://www.w3.org/2000/svg">
<path d="M15.0772 15.9762V12.7381C15.0772 12.4699 14.8768 12.2333 14.611 12.2333C14.3452 12.2333 14.1449 12.4699 14.1449 12.7381V15.9762C14.1449 16.5985 13.6862 17.0905 13.1465 17.0905H2.83068C2.29099 17.0905 1.83228 16.5985 1.83228 15.9762V3.02381C1.83228 2.40151 2.29099 1.90952 2.83068 1.90952L13.1465 1.90952C13.6862 1.90952 14.1449 2.40151 14.1449 3.02381V6.66667C14.1449 6.93484 14.3452 7.17143 14.611 7.17143C14.8768 7.17143 15.0772 6.93484 15.0772 6.66667V3.02381C15.0772 1.86516 14.2178 0.9 13.1465 0.9L2.83068 0.9C1.75938 0.9 0.9 1.86516 0.9 3.02381V15.9762C0.9 17.1348 1.75938 18.1 2.83068 18.1H13.1465C14.2178 18.1 15.0772 17.1348 15.0772 15.9762ZM17.0631 6.4028L19.5298 9.12976H10.9862C10.7204 9.12976 10.52 9.36635 10.52 9.63452C10.52 9.9027 10.7204 10.1393 10.9862 10.1393H19.5298L17.0631 12.8663C16.9729 12.966 16.9274 13.0912 16.9274 13.2167C16.9274 13.3421 16.9729 13.4674 17.0631 13.5671C17.1535 13.667 17.2712 13.7214 17.3936 13.7214C17.5159 13.7214 17.6336 13.667 17.724 13.5671L20.9643 9.98494C21.1452 9.78495 21.1452 9.4841 20.9643 9.28411L17.724 5.70197C17.6336 5.60203 17.5159 5.54762 17.3936 5.54762C17.2712 5.54762 17.1535 5.60203 17.0631 5.70197C16.8822 5.90196 16.8822 6.20281 17.0631 6.4028Z" fill="#141414" stroke="#141414" stroke-width="0.2"/>
</svg>
