<svg width="26" height="18" viewBox="0 0 26 18" fill="none" xmlns="http://www.w3.org/2000/svg">
<path d="M7.76018 1.92857C5.1928 1.92857 3.10407 4.0173 3.10407 6.58468C3.10407 9.15206 5.1928 11.2408 7.76018 11.2408C10.3276 11.2408 12.4163 9.15206 12.4163 6.58468C12.4163 4.0173 10.3276 1.92857 7.76018 1.92857ZM7.76018 10.2061C5.76333 10.2061 4.13876 8.58153 4.13876 6.58468C4.13876 4.58783 5.76333 2.96326 7.76018 2.96326C9.75703 2.96326 11.3816 4.58783 11.3816 6.58468C11.3816 8.58153 9.75703 10.2061 7.76018 10.2061Z" fill="#D8D8D8"/>
<path d="M13.5533 12.6953C12.2785 11.401 10.5886 10.6882 8.79487 10.6882H6.72549C4.93175 10.6882 3.24182 11.401 1.96709 12.6953C0.698589 13.9833 0 15.6834 0 17.4827C0 17.7684 0.231633 18 0.517345 18H15.003C15.2887 18 15.5204 17.7684 15.5204 17.4827C15.5204 15.6834 14.8218 13.9833 13.5533 12.6953ZM1.05745 16.9653C1.31664 14.0307 3.75976 11.7229 6.72549 11.7229H8.79487C11.7606 11.7229 14.2037 14.0307 14.4629 16.9653H1.05745Z" fill="#D8D8D8"/>
<path d="M17.403 0C14.8357 0 12.7469 2.08873 12.7469 4.65611C12.7469 7.22349 14.8357 9.31222 17.403 9.31222C19.9704 9.31222 22.0591 7.22349 22.0591 4.65611C22.0591 2.08873 19.9704 0 17.403 0ZM17.403 8.27753C15.4062 8.27753 13.7816 6.65296 13.7816 4.65611C13.7816 2.65926 15.4062 1.03469 17.403 1.03469C19.3999 1.03469 21.0245 2.65926 21.0245 4.65611C21.0245 6.65296 19.3999 8.27753 17.403 8.27753Z" fill="#D8D8D8"/>
<path fill-rule="evenodd" clip-rule="evenodd" d="M18.4377 8.75961C20.2315 8.75961 21.9214 9.47241 23.1961 10.7667C24.4646 12.0547 25.1632 13.7549 25.1632 15.5541C25.1632 15.8398 24.9316 16.0714 24.6459 16.0714H14.4643L14.1429 15.0367H24.1058C23.8466 12.1021 21.4035 9.7943 18.4377 9.7943H16.3683C14.4595 9.7943 12.7671 10.7504 11.7342 12.2143L10.9286 11.5722C11.133 11.2893 11.3604 11.0201 11.6099 10.7667C12.8847 9.47241 14.5746 8.75961 16.3683 8.75961H18.4377Z" fill="#D8D8D8"/>
</svg>
