<svg width="20" height="16" viewBox="0 0 20 16" fill="none" xmlns="http://www.w3.org/2000/svg">
<path d="M15.2762 6.13333V4.26667C15.2762 3.13508 14.7625 2.04983 13.848 1.24968C12.9335 0.449523 11.6932 0 10.4 0C9.10675 0 7.86648 0.449523 6.95201 1.24968C6.03755 2.04983 5.52381 3.13508 5.52381 4.26667V6.13333H4V10.4C4 13.4878 6.87101 16 10.4 16C13.929 16 16.8 13.4878 16.8 10.4V6.13333H15.2762ZM6.74286 4.26667C6.74286 3.41797 7.12816 2.60404 7.81401 2.00393C8.49986 1.40381 9.43007 1.06667 10.4 1.06667C11.3699 1.06667 12.3001 1.40381 12.986 2.00393C13.6718 2.60404 14.0571 3.41797 14.0571 4.26667V6.13333H6.74286V4.26667ZM15.581 10.4C15.581 12.8997 13.2568 14.9333 10.4 14.9333C7.54324 14.9333 5.21905 12.8997 5.21905 10.4V7.2H15.581V10.4Z" fill="#A2A2A2"/>
</svg>
