
<svg width="23" height="25" viewBox="0 0 23 25" fill="none" xmlns="http://www.w3.org/2000/svg">
<path d="M13.6364 3.78788C13.6364 3.18511 13.3969 2.60704 12.9707 2.18082C12.5445 1.7546 11.9664 1.51515 11.3636 1.51515C10.7609 1.51515 10.1828 1.7546 9.75658 2.18082C9.33036 2.60704 9.09091 3.18511 9.09091 3.78788H7.57576C7.57576 2.78327 7.97484 1.81981 8.6852 1.10944C9.39557 0.399079 10.359 0 11.3636 0C12.3682 0 13.3317 0.399079 14.0421 1.10944C14.7524 1.81981 15.1515 2.78327 15.1515 3.78788H21.9697C22.1706 3.78788 22.3633 3.86769 22.5054 4.00977C22.6475 4.15184 22.7273 4.34453 22.7273 4.54545C22.7273 4.74638 22.6475 4.93907 22.5054 5.08114C22.3633 5.22321 22.1706 5.30303 21.9697 5.30303H21.1303L19.1667 22.3182C19.0812 23.0567 18.7272 23.738 18.1721 24.2324C17.617 24.7269 16.8995 25.0001 16.1561 25H6.57121C5.8278 25.0001 5.11029 24.7269 4.55518 24.2324C4.00007 23.738 3.6461 23.0567 3.56061 22.3182L1.59545 5.30303H0.757576C0.580264 5.30309 0.408549 5.24095 0.272335 5.12744C0.136121 5.01393 0.0440371 4.85623 0.0121211 4.68182L0 4.54545C0 4.34453 0.0798159 4.15184 0.221889 4.00977C0.363962 3.86769 0.556654 3.78788 0.757576 3.78788H13.6364ZM19.603 5.30303H3.12273L5.06515 22.1439C5.10791 22.5133 5.28501 22.8541 5.56272 23.1013C5.84043 23.3486 6.19938 23.4851 6.57121 23.4848H16.1561C16.5276 23.4847 16.8862 23.348 17.1636 23.1008C17.441 22.8536 17.6179 22.5131 17.6606 22.1439L19.603 5.30303ZM9.09091 9.09091C9.46212 9.09091 9.77273 9.32576 9.83636 9.63485L9.84848 9.75455V19.0348C9.84848 19.4 9.50909 19.697 9.09091 19.697C8.7197 19.697 8.40909 19.4621 8.34546 19.153L8.33333 19.0333V9.75606C8.33333 9.38939 8.67273 9.09242 9.09091 9.09242V9.09091ZM13.6364 9.09091C14.0076 9.09091 14.3182 9.32576 14.3818 9.63485L14.3939 9.75455V19.0348C14.3939 19.4 14.0545 19.697 13.6364 19.697C13.2652 19.697 12.9545 19.4621 12.8909 19.153L12.8788 19.0333V9.75606C12.8788 9.38939 13.2182 9.09242 13.6364 9.09242V9.09091Z" fill="#141414"/>
</svg>
