<svg width="20" height="20" viewBox="0 0 20 20" fill="none" xmlns="http://www.w3.org/2000/svg">
<path d="M10 5.94225C9.46713 5.94225 8.93948 6.0472 8.44717 6.25112C7.95486 6.45505 7.50753 6.75394 7.13073 7.13073C6.75394 7.50753 6.45505 7.95486 6.25112 8.44717C6.0472 8.93948 5.94225 9.46713 5.94225 10C5.94225 10.5329 6.0472 11.0605 6.25112 11.5528C6.45505 12.0451 6.75394 12.4925 7.13073 12.8693C7.50753 13.2461 7.95486 13.545 8.44717 13.7489C8.93948 13.9528 9.46713 14.0578 10 14.0578C11.0762 14.0578 12.1083 13.6302 12.8693 12.8693C13.6302 12.1083 14.0578 11.0762 14.0578 10C14.0578 8.92382 13.6302 7.89171 12.8693 7.13073C12.1083 6.36976 11.0762 5.94225 10 5.94225ZM7.19233 10C7.19233 9.25536 7.48813 8.54121 8.01467 8.01467C8.54121 7.48813 9.25536 7.19233 10 7.19233C10.7446 7.19233 11.4588 7.48813 11.9853 8.01467C12.5119 8.54121 12.8077 9.25536 12.8077 10C12.8077 10.7446 12.5119 11.4588 11.9853 11.9853C11.4588 12.5119 10.7446 12.8077 10 12.8077C9.25536 12.8077 8.54121 12.5119 8.01467 11.9853C7.48813 11.4588 7.19233 10.7446 7.19233 10Z" fill="#141414"/>
<path d="M12.2451 1.67823C11.5863 -0.55941 8.41365 -0.55941 7.75486 1.67823L7.63735 2.077C7.59135 2.2332 7.51097 2.37713 7.40211 2.49823C7.29325 2.61933 7.15867 2.71453 7.00824 2.77686C6.85781 2.83919 6.69533 2.86707 6.53273 2.85845C6.37012 2.84983 6.2115 2.80493 6.0685 2.72705L5.70348 2.52703C3.65335 1.41196 1.41196 3.6546 2.52828 5.70348L2.72705 6.0685C2.80493 6.2115 2.84983 6.37012 2.85845 6.53273C2.86707 6.69533 2.83919 6.85781 2.77686 7.00824C2.71453 7.15867 2.61933 7.29325 2.49823 7.40211C2.37713 7.51097 2.2332 7.59135 2.077 7.63735L1.67823 7.75486C-0.55941 8.41365 -0.55941 11.5863 1.67823 12.2451L2.077 12.3626C2.2332 12.4087 2.37713 12.489 2.49823 12.5979C2.61933 12.7067 2.71453 12.8413 2.77686 12.9918C2.83919 13.1422 2.86707 13.3047 2.85845 13.4673C2.84983 13.6299 2.80493 13.7885 2.72705 13.9315L2.52703 14.2965C1.41196 16.3466 3.65335 18.5893 5.70348 17.4717L6.0685 17.273C6.2115 17.1951 6.37012 17.1502 6.53273 17.1416C6.69533 17.1329 6.85781 17.1608 7.00824 17.2231C7.15867 17.2855 7.29325 17.3807 7.40211 17.5018C7.51097 17.6229 7.59135 17.7668 7.63735 17.923L7.75486 18.3218C8.41365 20.5594 11.5863 20.5594 12.2451 18.3218L12.3626 17.923C12.4087 17.7668 12.489 17.6229 12.5979 17.5018C12.7067 17.3807 12.8413 17.2855 12.9918 17.2231C13.1422 17.1608 13.3047 17.1329 13.4673 17.1416C13.6299 17.1502 13.7885 17.1951 13.9315 17.273L14.2965 17.473C16.3466 18.5893 18.5893 16.3454 17.4717 14.2965L17.273 13.9315C17.1951 13.7885 17.1502 13.6299 17.1416 13.4673C17.1329 13.3047 17.1608 13.1422 17.2231 12.9918C17.2855 12.8413 17.3807 12.7067 17.5018 12.5979C17.6229 12.489 17.7668 12.4087 17.923 12.3626L18.3218 12.2451C20.5594 11.5863 20.5594 8.41365 18.3218 7.75486L17.923 7.63735C17.7668 7.59135 17.6229 7.51097 17.5018 7.40211C17.3807 7.29325 17.2855 7.15867 17.2231 7.00824C17.1608 6.85781 17.1329 6.69533 17.1416 6.53273C17.1502 6.37012 17.1951 6.2115 17.273 6.0685L17.473 5.70348C18.5893 3.65335 16.3454 1.41196 14.2965 2.52828L13.9315 2.72705C13.7885 2.80493 13.6299 2.84983 13.4673 2.85845C13.3047 2.86707 13.1422 2.83919 12.9918 2.77686C12.8413 2.71453 12.7067 2.61933 12.5979 2.49823C12.489 2.37713 12.4087 2.2332 12.3626 2.077L12.2451 1.67823ZM8.95368 2.032C9.2612 0.988187 10.7388 0.988187 11.0463 2.032L11.1638 2.43078C11.2626 2.7659 11.4351 3.07468 11.6688 3.33446C11.9024 3.59424 12.1912 3.79844 12.514 3.9321C12.8368 4.06575 13.1854 4.12547 13.5343 4.10687C13.8832 4.08827 14.2235 3.99183 14.5303 3.82461L14.8941 3.6246C15.8491 3.10582 16.8942 4.14963 16.3741 5.10594L16.1754 5.47097C16.0084 5.77777 15.9122 6.11804 15.8938 6.46685C15.8754 6.81566 15.9353 7.16416 16.0691 7.48682C16.2028 7.80949 16.4071 8.09813 16.6669 8.33162C16.9267 8.5651 17.2354 8.73749 17.5705 8.83618L17.968 8.95368C19.0118 9.2612 19.0118 10.7388 17.968 11.0463L17.5692 11.1638C17.2341 11.2626 16.9253 11.4351 16.6655 11.6688C16.4058 11.9024 16.2016 12.1912 16.0679 12.514C15.9343 12.8368 15.8745 13.1854 15.8931 13.5343C15.9117 13.8832 16.0082 14.2235 16.1754 14.5303L16.3754 14.8941C16.8942 15.8491 15.8504 16.8942 14.8941 16.3741L14.5303 16.1754C14.2234 16.0082 13.883 15.9118 13.5341 15.8933C13.1851 15.8748 12.8365 15.9346 12.5136 16.0684C12.1908 16.2021 11.902 16.4065 11.6685 16.6664C11.4349 16.9263 11.2625 17.2352 11.1638 17.5705L11.0463 17.968C10.7388 19.0118 9.2612 19.0118 8.95368 17.968L8.83618 17.5692C8.73735 17.2343 8.56485 16.9257 8.33131 16.666C8.09777 16.4064 7.8091 16.2022 7.48646 16.0686C7.16381 15.935 6.81535 15.8752 6.46662 15.8937C6.11788 15.9122 5.77769 16.0084 5.47097 16.1754L5.10594 16.3754C4.15088 16.8942 3.10582 15.8504 3.62585 14.8941L3.82461 14.5303C3.99206 14.2235 4.08869 13.8831 4.10742 13.534C4.12614 13.185 4.06647 12.8362 3.9328 12.5132C3.79913 12.1902 3.59484 11.9013 3.33493 11.6676C3.07502 11.4339 2.76608 11.2613 2.43078 11.1626L2.032 11.0451C0.988187 10.7375 0.988187 9.25995 2.032 8.95243L2.43078 8.83493C2.76556 8.73606 3.07399 8.56359 3.33351 8.33013C3.59303 8.09668 3.79707 7.80815 3.93069 7.48566C4.06431 7.16318 4.12413 6.81489 4.10578 6.4663C4.08742 6.11771 3.99136 5.77764 3.82461 5.47097L3.6246 5.10594C3.10582 4.15088 4.14963 3.10582 5.10594 3.62585L5.47097 3.82461C5.77769 3.99159 6.11788 4.08785 6.46662 4.10632C6.81535 4.1248 7.16381 4.06503 7.48646 3.93139C7.8091 3.79775 8.09777 3.59363 8.33131 3.33398C8.56485 3.07433 8.73735 2.76573 8.83618 2.43078L8.95368 2.032Z" fill="#141414"/>
</svg>
