<svg width="19" height="20" viewBox="0 0 19 20" fill="none" xmlns="http://www.w3.org/2000/svg">
	<path d="M7.02626 2.50006C6.07251 2.50006 5.1825 2.76631 4.42375 3.23006C4.34533 2.81057 4.20238 2.40577 4 2.03005C4.95162 1.50343 6.02419 1.23425 7.11171 1.24912C8.19923 1.26399 9.26404 1.5624 10.2009 2.11485C11.1378 2.66729 11.9143 3.45466 12.4536 4.39912C12.993 5.34359 13.2765 6.41245 13.2763 7.50007H16.4025C16.8996 7.5004 17.3762 7.69809 17.7276 8.04969C18.0789 8.40128 18.2763 8.87801 18.2763 9.37507V16.8751C18.2763 17.3724 18.0787 17.8493 17.7271 18.2009C17.3755 18.5525 16.8986 18.7501 16.4013 18.7501H8.90126C8.40398 18.7501 7.92706 18.5525 7.57543 18.2009C7.2238 17.8493 7.02626 17.3724 7.02626 16.8751V13.7501C6.15673 13.7512 5.29661 13.5702 4.50125 13.2188C4.5175 12.7938 4.52625 12.3476 4.52625 11.8751V11.8313C5.26125 12.2563 6.11501 12.5001 7.02626 12.5001V9.37507C7.02626 8.87779 7.2238 8.40088 7.57543 8.04924C7.92706 7.69761 8.40398 7.50007 8.90126 7.50007H12.0263C12.0263 6.17398 11.4995 4.90221 10.5618 3.96452C9.62412 3.02684 8.35234 2.50006 7.02626 2.50006ZM13.1513 8.75007C12.9054 9.95078 12.3123 11.0529 11.4457 11.9195C10.579 12.7862 9.47697 13.3792 8.27626 13.6251V16.8751C8.27626 17.0409 8.34211 17.1998 8.45932 17.317C8.57653 17.4342 8.7355 17.5001 8.90126 17.5001H16.4013C16.567 17.5001 16.726 17.4342 16.8432 17.317C16.9604 17.1998 17.0263 17.0409 17.0263 16.8751V9.37507C17.0263 9.20931 16.9604 9.05034 16.8432 8.93313C16.726 8.81592 16.567 8.75007 16.4013 8.75007H13.1513ZM11.8688 8.75007H8.90126C8.7355 8.75007 8.57653 8.81592 8.45932 8.93313C8.34211 9.05034 8.27626 9.20931 8.27626 9.37507V12.3426C9.14103 12.1185 9.93014 11.6673 10.5618 11.0356C11.1935 10.404 11.6447 9.61484 11.8688 8.75007Z" fill="#1B1B1B" />
	<path d="M3.22501 0.1562C3.32897 0.246795 3.40005 0.369229 3.42718 0.504431C3.45432 0.639633 3.43597 0.780012 3.37501 0.903702C3.36443 0.940273 3.35896 0.978132 3.35876 1.0162C3.35876 1.09495 3.37876 1.24495 3.56751 1.43245C3.65876 1.5237 3.72876 1.5887 3.80501 1.65995C3.86751 1.71745 3.93376 1.77745 4.01751 1.85995C4.18001 2.01495 4.35126 2.19746 4.50501 2.42621C4.82376 2.90496 5.00001 3.50371 5.00001 4.37496C5.00001 5.44121 4.60501 6.34997 3.98876 6.90747L4.06876 6.99997C4.41876 7.42997 4.62251 7.98747 4.75001 8.53747C5.00001 9.62497 5.00001 10.9325 5.00001 11.8437V11.875C5.00001 15.3587 4.52626 17.335 4.00501 18.465C3.74251 19.0337 3.46376 19.3962 3.22251 19.6237C3.12443 19.7178 3.01627 19.8008 2.90001 19.8712C2.84677 19.9033 2.7912 19.9313 2.73376 19.955C2.73376 19.955 2.59251 20 2.50001 20C2.40751 20 2.26626 19.955 2.26626 19.955C2.20819 19.9327 2.1525 19.9046 2.10001 19.8712C1.98374 19.8008 1.87559 19.7178 1.7775 19.6237C1.53625 19.395 1.2575 19.0337 0.995003 18.465C0.473751 17.335 0 15.3587 0 11.875V11.8437C0 10.9312 5.58795e-08 9.62497 0.250001 8.53747C0.377501 7.98747 0.581251 7.42997 0.931252 6.99997C0.956252 6.96872 0.983753 6.93747 1.01125 6.90747C0.395001 6.34997 0 5.44121 0 4.37496C0 3.96746 0.10875 3.48121 0.258751 3.03246C0.408751 2.58246 0.618751 2.11746 0.861252 1.74245C1.15 1.25495 1.55625 0.846202 1.87125 0.571201C2.04395 0.419321 2.22418 0.276223 2.41126 0.14245L2.44876 0.11745L2.46001 0.1087L2.46376 0.1062L2.46626 0.10495C2.58088 0.0285459 2.71753 -0.00785137 2.85497 0.00141674C2.99241 0.0106848 3.12293 0.0650989 3.22626 0.1562H3.22501ZM2.50376 6.24997C2.98251 6.24872 3.75001 5.71246 3.75001 4.37496C3.75001 3.68371 3.61376 3.34496 3.46376 3.11996C3.37256 2.98854 3.26736 2.86741 3.15001 2.75871L2.99501 2.61371C2.89376 2.51871 2.77501 2.40871 2.68251 2.31746C2.54579 2.18216 2.42843 2.02863 2.33376 1.8612C2.17464 2.02851 2.03462 2.21297 1.91625 2.41121C1.74125 2.67996 1.57125 3.04871 1.445 3.42871C1.315 3.81621 1.25 4.15871 1.25 4.37496C1.25 5.71496 2.01876 6.24997 2.50001 6.24997H2.50251H2.50376ZM1.9 7.78997C1.72375 8.00622 1.575 8.35122 1.46875 8.81872C1.2525 9.75372 1.25 10.9287 1.25 11.875C1.25 15.2662 1.71375 17.04 2.13001 17.9412C2.26751 18.2375 2.39626 18.435 2.50001 18.5662C2.60376 18.435 2.73376 18.2375 2.87001 17.9412C3.28626 17.04 3.75001 15.2662 3.75001 11.875C3.75001 10.9287 3.74751 9.75372 3.53126 8.81872C3.42376 8.35122 3.27626 8.00622 3.10001 7.78997C3.03106 7.69655 2.9404 7.62132 2.83586 7.57079C2.73132 7.52026 2.61605 7.49596 2.50001 7.49997H2.49751C2.38187 7.49626 2.26706 7.52072 2.16297 7.57124C2.05888 7.62176 1.96864 7.69682 1.9 7.78997Z" fill="#1B1B1B" />
</svg>