
<svg width="20" height="16" viewBox="0 0 20 16" fill="none" xmlns="http://www.w3.org/2000/svg">
<path d="M14.1745 10.7064C14.1745 11.6028 13.834 12.3631 13.1532 12.9872C12.4837 13.6113 11.5078 13.9745 10.2255 14.0766V16H9.13617V14.0766C8.3078 14.0312 7.51915 13.878 6.77021 13.617C6.03262 13.3447 5.44255 13.0043 5 12.5957L5.62979 11.2681C6.0383 11.6426 6.55461 11.9546 7.17872 12.2043C7.80284 12.4426 8.45532 12.5844 9.13617 12.6298V8.68085C8.34184 8.48794 7.67801 8.27802 7.14468 8.05106C6.6227 7.82411 6.18014 7.48936 5.81702 7.04681C5.46525 6.60426 5.28936 6.02553 5.28936 5.31064C5.28936 4.41419 5.61277 3.6539 6.25957 3.02979C6.91773 2.40567 7.8766 2.04255 9.13617 1.94043V0H10.2255V1.9234C10.8723 1.9461 11.4965 2.04823 12.0979 2.22979C12.7106 2.41135 13.2383 2.65532 13.6809 2.9617L13.1191 4.3234C12.2 3.74468 11.2355 3.42695 10.2255 3.37021V7.33617C11.0539 7.54043 11.7348 7.75603 12.2681 7.98298C12.8014 8.19858 13.2496 8.52766 13.6128 8.97021C13.9872 9.40142 14.1745 9.98014 14.1745 10.7064ZM6.95745 5.24255C6.95745 5.7305 7.14468 6.11064 7.51915 6.38298C7.89362 6.65532 8.43262 6.88227 9.13617 7.06383V3.38723C8.40993 3.47801 7.86525 3.69362 7.50213 4.03404C7.13901 4.36312 6.95745 4.76596 6.95745 5.24255ZM10.2255 12.6128C10.9858 12.5447 11.5532 12.3518 11.9277 12.034C12.3135 11.705 12.5064 11.2965 12.5064 10.8085C12.5064 10.3092 12.3078 9.92908 11.9106 9.66809C11.5248 9.39575 10.9631 9.15745 10.2255 8.95319V12.6128Z" fill="#A2A2A2"/>
</svg>
