
<svg width="20" height="16" viewBox="0 0 20 16" fill="none" xmlns="http://www.w3.org/2000/svg">
<path d="M13.7778 8.88889C13.601 8.88889 13.4314 8.95913 13.3064 9.08415C13.1813 9.20918 13.1111 9.37875 13.1111 9.55556C13.1111 9.73237 13.1813 9.90194 13.3064 10.027C13.4314 10.152 13.601 10.2222 13.7778 10.2222H15.5556C15.7324 10.2222 15.9019 10.152 16.027 10.027C16.152 9.90194 16.2222 9.73237 16.2222 9.55556C16.2222 9.37875 16.152 9.20918 16.027 9.08415C15.9019 8.95913 15.7324 8.88889 15.5556 8.88889H13.7778ZM16.4444 2.44444C16.4444 1.79614 16.1869 1.17438 15.7285 0.715961C15.2701 0.257539 14.6483 0 14 0H4C3.72548 4.57497e-05 3.4539 0.0566068 3.20219 0.166161C2.95047 0.275716 2.72401 0.435918 2.53689 0.636793C2.34977 0.837667 2.20602 1.07491 2.11457 1.33376C2.02312 1.5926 1.98593 1.8675 2.00533 2.14133C2.00193 2.16816 2.00015 2.19518 2 2.22222V13.1111C2 13.8773 2.30436 14.6121 2.84614 15.1539C3.38791 15.6956 4.12271 16 4.88889 16H16C16.6483 16 17.2701 15.7425 17.7285 15.284C18.1869 14.8256 18.4444 14.2039 18.4444 13.5556V5.11111C18.4446 4.53977 18.2447 3.98643 17.8793 3.54718C17.5139 3.10794 17.0063 2.81055 16.4444 2.70667V2.44444ZM3.33333 2C3.33333 1.82319 3.40357 1.65362 3.5286 1.5286C3.65362 1.40357 3.82319 1.33333 4 1.33333H14C14.6133 1.33333 15.1111 1.83111 15.1111 2.44444V2.66667H4C3.82319 2.66667 3.65362 2.59643 3.5286 2.4714C3.40357 2.34638 3.33333 2.17681 3.33333 2ZM4 4H16C16.6133 4 17.1111 4.49778 17.1111 5.11111V13.5556C17.1111 14.1689 16.6133 14.6667 16 14.6667H4.88889C4.47633 14.6667 4.08067 14.5028 3.78895 14.2111C3.49722 13.9193 3.33333 13.5237 3.33333 13.1111V3.88622C3.54222 3.96 3.76622 4 4 4Z" fill="#A2A2A2"/>
</svg>
