
<svg width="20" height="20" viewBox="0 0 20 20" fill="none" xmlns="http://www.w3.org/2000/svg">
<path d="M0.6 1.75439C0.6 1.11684 1.11684 0.6 1.75439 0.6H7.36842C8.00597 0.6 8.52281 1.11684 8.52281 1.75439V7.36842C8.52281 8.00597 8.00597 8.52281 7.36842 8.52281H1.75439C1.11684 8.52281 0.6 8.00597 0.6 7.36842V1.75439ZM11.4772 1.75439C11.4772 1.11684 11.994 0.6 12.6316 0.6H18.2456C18.8832 0.6 19.4 1.11684 19.4 1.75439V7.36842C19.4 8.00597 18.8832 8.52281 18.2456 8.52281H12.6316C11.994 8.52281 11.4772 8.00597 11.4772 7.36842V1.75439ZM0.6 12.6316C0.6 11.994 1.11684 11.4772 1.75439 11.4772H7.36842C8.00597 11.4772 8.52281 11.994 8.52281 12.6316V18.2456C8.52281 18.8832 8.00597 19.4 7.36842 19.4H1.75439C1.11684 19.4 0.6 18.8832 0.6 18.2456V12.6316ZM11.4772 12.6316C11.4772 11.994 11.994 11.4772 12.6316 11.4772H18.2456C18.8832 11.4772 19.4 11.994 19.4 12.6316V18.2456C19.4 18.8832 18.8832 19.4 18.2456 19.4H12.6316C11.994 19.4 11.4772 18.8832 11.4772 18.2456V12.6316Z" stroke="#FDFDFD" stroke-width="1.2"/>
</svg>
