
<svg width="158" height="66" viewBox="0 0 158 66" fill="none" xmlns="http://www.w3.org/2000/svg">
<g clip-path="url(#clip0_869_30756)">
<circle opacity="0.5" cx="33.0001" cy="33" r="28.3158" fill="url(#paint0_radial_869_30756)" stroke="#155A75" stroke-width="0.942857"/>
<g opacity="0.5" filter="url(#filter0_b_869_30756)">
<circle cx="33" cy="33" r="17.5532" fill="url(#paint1_linear_869_30756)"/>
</g>
<g filter="url(#filter1_b_869_30756)">
<circle cx="33" cy="33" r="17.5532" fill="url(#paint2_linear_869_30756)" fill-opacity="0.2" style="mix-blend-mode:overlay"/>
<circle cx="33" cy="33" r="17.0818" stroke="url(#paint3_linear_869_30756)" stroke-width="0.942857"/>
</g>
<path d="M57.7799 0.386051L57.8061 0.353274L64.2758 6.82296L64.2406 6.84996C64.08 6.97329 63.8443 7.15405 63.5438 7.38373C62.943 7.84308 62.0834 8.49804 61.0486 9.28038C58.979 10.8451 56.2091 12.9191 53.4073 14.9563C50.6048 16.9942 47.7735 18.9931 45.5799 20.409C44.4821 21.1177 43.5502 21.6762 42.8641 22.0207C42.5195 22.1937 42.2478 22.307 42.0535 22.3604C41.9773 22.3814 41.9212 22.3908 41.8823 22.3933C41.8859 22.3485 41.8987 22.2834 41.9263 22.1947C41.9886 21.9947 42.1118 21.72 42.2944 21.3758C42.6581 20.6901 43.2371 19.7665 43.9662 18.6829C45.4233 16.5177 47.4645 13.7369 49.5405 10.9892C51.6159 8.24216 53.7237 5.53125 55.3129 3.50688C56.1074 2.49475 56.7722 1.65436 57.2384 1.06704C57.4714 0.773381 57.6548 0.542996 57.7799 0.386051ZM41.8325 22.3919C41.8325 22.3919 41.833 22.392 41.8338 22.3922L41.8325 22.3919ZM41.8829 22.4415C41.8831 22.4421 41.8832 22.4424 41.8832 22.4425L41.8829 22.4415Z" fill="url(#paint4_linear_869_30756)" stroke="url(#paint5_linear_869_30756)" stroke-width="0.471429"/>
<path d="M5.80157 62.8204L5.77399 62.8546L-0.69749 56.3831L-0.662369 56.3558C-0.502836 56.2322 -0.268646 56.0511 0.0298621 55.8209C0.626884 55.3605 1.48116 54.7042 2.51001 53.9203C4.56783 52.3524 7.32348 50.2747 10.1157 48.235C12.9088 46.1947 15.7351 44.1948 17.9352 42.781C19.0364 42.0734 19.9742 41.5169 20.6698 41.1755C21.0191 41.0041 21.2963 40.8924 21.497 40.8408C21.5979 40.8148 21.6669 40.8073 21.7096 40.8092C21.71 40.8092 21.7104 40.8092 21.7108 40.8093C21.7109 40.8104 21.7109 40.8115 21.711 40.8127C21.7121 40.8563 21.7033 40.9256 21.6755 41.026C21.6203 41.2257 21.5038 41.5003 21.3265 41.8455C20.9735 42.5328 20.4016 43.4573 19.6761 44.5416C18.2264 46.7081 16.1808 49.4873 14.0955 52.2324C12.0108 54.9768 9.88891 57.6838 8.28801 59.7049C7.48761 60.7154 6.81755 61.5543 6.34762 62.1406C6.11266 62.4337 5.92774 62.6637 5.80157 62.8204Z" fill="url(#paint6_linear_869_30756)" stroke="url(#paint7_linear_869_30756)" stroke-width="0.471429"/>
</g>
<path d="M80.156 28V12.38H88.78C90.4667 12.38 91.794 12.7687 92.762 13.546C93.7447 14.3087 94.236 15.5113 94.236 17.154C94.236 18.7673 93.7373 19.9847 92.74 20.806C91.7573 21.6127 90.4373 22.016 88.78 22.016H83.104V28H80.156ZM88.626 15.02H83.104V19.376H88.626C89.3887 19.376 90.0047 19.2 90.474 18.848C90.958 18.4813 91.2 17.9313 91.2 17.198C91.2 15.746 90.342 15.02 88.626 15.02ZM102.602 28.242C100.959 28.242 99.6247 27.78 98.598 26.856C97.586 25.932 97.08 24.678 97.08 23.094V16.868H99.896V22.786C99.896 23.666 100.123 24.37 100.578 24.898C101.047 25.4113 101.707 25.668 102.558 25.668C103.409 25.668 104.061 25.4113 104.516 24.898C104.985 24.37 105.22 23.666 105.22 22.786V16.868H108.058V23.094C108.058 24.7073 107.545 25.9687 106.518 26.878C105.506 27.7873 104.201 28.242 102.602 28.242ZM111.828 28V11.808H114.644V28H111.828ZM123.903 23.644C123.741 23.6293 123.536 23.6147 123.287 23.6C123.052 23.5707 122.927 23.556 122.913 23.556C122.355 23.512 121.871 23.4607 121.461 23.402C121.05 23.3287 120.603 23.2113 120.119 23.05C119.649 22.874 119.261 22.6687 118.953 22.434C118.645 22.1847 118.381 21.8547 118.161 21.444C117.955 21.0187 117.853 20.5273 117.853 19.97C117.853 19.1633 118.124 18.4887 118.667 17.946C119.209 17.4033 119.825 17.0367 120.515 16.846C121.219 16.6553 121.967 16.56 122.759 16.56C123.58 16.56 124.343 16.648 125.047 16.824C125.751 17 126.403 17.3373 127.005 17.836C127.621 18.32 128.024 18.9433 128.215 19.706H125.245C124.981 19.3247 124.504 19.024 123.815 18.804C123.477 18.7307 123.118 18.694 122.737 18.694C122.429 18.694 122.135 18.716 121.857 18.76C121.593 18.804 121.329 18.9213 121.065 19.112C120.815 19.288 120.691 19.5227 120.691 19.816C120.691 20.4467 121.219 20.8353 122.275 20.982L124.167 21.18C125.501 21.2973 126.543 21.62 127.291 22.148C128.039 22.676 128.413 23.556 128.413 24.788C128.413 25.448 128.251 26.02 127.929 26.504C127.621 26.988 127.203 27.3547 126.675 27.604C126.147 27.8533 125.597 28.0293 125.025 28.132C124.467 28.2493 123.881 28.308 123.265 28.308C121.446 28.308 120.009 27.8607 118.953 26.966C118.498 26.5993 118.175 26.2253 117.985 25.844C117.779 25.492 117.64 25.1693 117.567 24.876H120.581C120.713 25.2867 121.057 25.602 121.615 25.822C122.187 26.0273 122.737 26.13 123.265 26.13C124.79 26.13 125.553 25.7193 125.553 24.898C125.553 24.1793 125.003 23.7613 123.903 23.644ZM139.746 28V26.24C139.643 26.4013 139.533 26.57 139.416 26.746C138.609 27.7433 137.465 28.242 135.984 28.242C134.37 28.242 133.094 27.6773 132.156 26.548C131.217 25.4187 130.748 24.0473 130.748 22.434C130.748 20.7913 131.224 19.4127 132.178 18.298C133.146 17.1833 134.422 16.626 136.006 16.626C136.974 16.626 137.861 16.8827 138.668 17.396C139.108 17.7187 139.46 18.1 139.724 18.54V16.868H142.54V28H139.746ZM139.768 22.434C139.768 21.4807 139.489 20.6887 138.932 20.058C138.389 19.4127 137.656 19.09 136.732 19.09C135.778 19.09 135.016 19.4127 134.444 20.058C133.886 20.6887 133.608 21.4807 133.608 22.434C133.608 23.446 133.894 24.238 134.466 24.81C134.744 25.1327 135.074 25.3673 135.456 25.514C135.837 25.69 136.262 25.778 136.732 25.778C137.656 25.778 138.389 25.4553 138.932 24.81C139.489 24.15 139.768 23.358 139.768 22.434ZM149.183 22.148V28H146.389V16.868H149.183V18.738C149.476 18.0633 149.946 17.572 150.591 17.264C151.251 16.956 151.984 16.802 152.791 16.802H155.387V19.596H152.417C151.361 19.596 150.554 19.7793 149.997 20.146C149.454 20.498 149.183 21.1653 149.183 22.148ZM94.764 47.002V53.976C93.9133 54.7533 92.872 55.3327 91.64 55.714C90.408 56.0953 89.154 56.286 87.878 56.286C85.3407 56.286 83.28 55.5453 81.696 54.064C80.112 52.5827 79.32 50.61 79.32 48.146C79.32 45.7847 80.0753 43.856 81.586 42.36C83.1113 40.8493 85.0327 40.094 87.35 40.094C88.3913 40.094 89.3667 40.2407 90.276 40.534C91.2 40.8127 92.036 41.282 92.784 41.942C93.5467 42.602 94.082 43.416 94.39 44.384H91.266C90.87 43.8267 90.3127 43.4087 89.594 43.13C88.8753 42.8513 88.1273 42.712 87.35 42.712C85.81 42.712 84.5853 43.2327 83.676 44.274C82.7813 45.3153 82.334 46.606 82.334 48.146C82.334 49.818 82.8473 51.16 83.874 52.172C84.9153 53.1693 86.2573 53.668 87.9 53.668C89.6013 53.668 90.9433 53.3453 91.926 52.7V49.51H86.426V47.002H94.764ZM101.36 50.148V56H98.5655V44.868H101.36V46.738C101.653 46.0633 102.122 45.572 102.768 45.264C103.428 44.956 104.161 44.802 104.968 44.802H107.564V47.596H104.594C103.538 47.596 102.731 47.7793 102.174 48.146C101.631 48.498 101.36 49.1653 101.36 50.148ZM115.452 44.582C117.168 44.582 118.59 45.1393 119.72 46.254C120.864 47.354 121.436 48.7473 121.436 50.434C121.436 52.1353 120.856 53.536 119.698 54.636C118.554 55.736 117.138 56.286 115.452 56.286C113.736 56.286 112.306 55.7287 111.162 54.614C110.018 53.4993 109.446 52.106 109.446 50.434C109.446 48.718 110.018 47.3173 111.162 46.232C112.32 45.132 113.75 44.582 115.452 44.582ZM115.452 53.778C116.405 53.778 117.168 53.4553 117.74 52.81C118.312 52.1647 118.598 51.3727 118.598 50.434C118.598 49.4953 118.312 48.696 117.74 48.036C117.446 47.7427 117.116 47.508 116.75 47.332C116.339 47.1707 115.906 47.09 115.452 47.09C114.528 47.09 113.765 47.42 113.164 48.08C112.577 48.7253 112.284 49.51 112.284 50.434C112.284 51.3727 112.584 52.1647 113.186 52.81C113.787 53.4553 114.542 53.778 115.452 53.778ZM129.94 56.242C128.298 56.242 126.963 55.78 125.936 54.856C124.924 53.932 124.418 52.678 124.418 51.094V44.868H127.234V50.786C127.234 51.666 127.462 52.37 127.916 52.898C128.386 53.4113 129.046 53.668 129.896 53.668C130.747 53.668 131.4 53.4113 131.854 52.898C132.324 52.37 132.558 51.666 132.558 50.786V44.868H135.396V51.094C135.396 52.7073 134.883 53.9687 133.856 54.878C132.844 55.7873 131.539 56.242 129.94 56.242ZM141.894 54.306V60.664H139.122V44.868H141.916V46.628C141.96 46.5107 142.077 46.3493 142.268 46.144C142.664 45.6453 143.17 45.2713 143.786 45.022C144.417 44.758 145.069 44.626 145.744 44.626C147.372 44.626 148.655 45.1907 149.594 46.32C150.547 47.4347 151.024 48.806 151.024 50.434C151.024 52.0913 150.54 53.4773 149.572 54.592C148.619 55.692 147.343 56.242 145.744 56.242C144.967 56.242 144.226 56.0733 143.522 55.736C142.818 55.3987 142.275 54.922 141.894 54.306ZM142.708 48.058C142.151 48.6887 141.872 49.4807 141.872 50.434C141.872 51.3873 142.158 52.1867 142.73 52.832C143.317 53.4627 144.079 53.778 145.018 53.778C145.971 53.778 146.734 53.4627 147.306 52.832C147.893 52.1867 148.186 51.3873 148.186 50.434C148.186 48.9527 147.57 47.9187 146.338 47.332C145.927 47.1707 145.487 47.09 145.018 47.09C144.05 47.09 143.28 47.4127 142.708 48.058Z" fill="url(#paint8_linear_869_30756)"/>
<defs>
<filter id="filter0_b_869_30756" x="-4.35322" y="-4.35324" width="74.7064" height="74.7064" filterUnits="userSpaceOnUse" color-interpolation-filters="sRGB">
<feFlood flood-opacity="0" result="BackgroundImageFix"/>
<feGaussianBlur in="BackgroundImage" stdDeviation="9.9"/>
<feComposite in2="SourceAlpha" operator="in" result="effect1_backgroundBlur_869_30756"/>
<feBlend mode="normal" in="SourceGraphic" in2="effect1_backgroundBlur_869_30756" result="shape"/>
</filter>
<filter id="filter1_b_869_30756" x="-4.35322" y="-4.35324" width="74.7064" height="74.7064" filterUnits="userSpaceOnUse" color-interpolation-filters="sRGB">
<feFlood flood-opacity="0" result="BackgroundImageFix"/>
<feGaussianBlur in="BackgroundImage" stdDeviation="9.9"/>
<feComposite in2="SourceAlpha" operator="in" result="effect1_backgroundBlur_869_30756"/>
<feBlend mode="normal" in="SourceGraphic" in2="effect1_backgroundBlur_869_30756" result="shape"/>
</filter>
<radialGradient id="paint0_radial_869_30756" cx="0" cy="0" r="1" gradientUnits="userSpaceOnUse" gradientTransform="translate(33.0001 33) rotate(90) scale(28.7872)">
<stop offset="0.702972" stop-color="#0B111B"/>
<stop offset="1" stop-color="#165170"/>
</radialGradient>
<linearGradient id="paint1_linear_869_30756" x1="43.8416" y1="19.1897" x2="18.9316" y2="44.0998" gradientUnits="userSpaceOnUse">
<stop stop-color="#04FFFE"/>
<stop offset="1" stop-color="#4A2AC8"/>
</linearGradient>
<linearGradient id="paint2_linear_869_30756" x1="33.0587" y1="10.6225" x2="33.0587" y2="54.1568" gradientUnits="userSpaceOnUse">
<stop stop-color="white" stop-opacity="0.15"/>
<stop offset="1" stop-opacity="0.15"/>
</linearGradient>
<linearGradient id="paint3_linear_869_30756" x1="34.4583" y1="53.9519" x2="34.4583" y2="16.3005" gradientUnits="userSpaceOnUse">
<stop stop-color="#04FFFE"/>
<stop offset="1" stop-color="#2AC870" stop-opacity="0"/>
</linearGradient>
<linearGradient id="paint4_linear_869_30756" x1="61.2608" y1="3.15957" x2="44.5716" y2="19.9956" gradientUnits="userSpaceOnUse">
<stop stop-color="#171A27" stop-opacity="0"/>
<stop offset="0.465557" stop-color="#635B9A"/>
<stop offset="1" stop-color="#116576"/>
</linearGradient>
<linearGradient id="paint5_linear_869_30756" x1="61.2091" y1="3.42298" x2="42.6553" y2="21.7688" gradientUnits="userSpaceOnUse">
<stop offset="0.257339" stop-color="#09ECE1" stop-opacity="0"/>
<stop offset="1" stop-color="#116678"/>
</linearGradient>
<linearGradient id="paint6_linear_869_30756" x1="1.94992" y1="59.154" x2="18.9797" y2="43.1926" gradientUnits="userSpaceOnUse">
<stop stop-color="#161926" stop-opacity="0"/>
<stop offset="0.41349" stop-color="#53619A"/>
<stop offset="1" stop-color="#22316C"/>
</linearGradient>
<linearGradient id="paint7_linear_869_30756" x1="4.1438" y1="58.0514" x2="20.6532" y2="41.2202" gradientUnits="userSpaceOnUse">
<stop offset="0.186828" stop-color="#09ECE1" stop-opacity="0"/>
<stop offset="1" stop-color="#22316B"/>
</linearGradient>
<linearGradient id="paint8_linear_869_30756" x1="68.125" y1="5" x2="166.653" y2="64.511" gradientUnits="userSpaceOnUse">
<stop stop-color="#2AA2CF"/>
<stop offset="1" stop-color="#A9419E"/>
</linearGradient>
<clipPath id="clip0_869_30756">
<rect width="66" height="66" fill="white"/>
</clipPath>
</defs>
</svg>
