
<svg width="121" height="51" viewBox="0 0 121 51" fill="none" xmlns="http://www.w3.org/2000/svg">
<g clip-path="url(#clip0_1040_33137)">
<circle opacity="0.5" cx="25.1014" cy="25.1013" r="21.5383" fill="url(#paint0_radial_1040_33137)" stroke="#155A75" stroke-width="0.717179"/>
<g opacity="0.5" filter="url(#filter0_b_1040_33137)">
<circle cx="25.1012" cy="25.1012" r="13.3517" fill="url(#paint1_linear_1040_33137)"/>
</g>
<g filter="url(#filter1_b_1040_33137)">
<circle cx="25.1012" cy="25.1012" r="13.3517" fill="url(#paint2_linear_1040_33137)" fill-opacity="0.2" style="mix-blend-mode:overlay"/>
<circle cx="25.1012" cy="25.1012" r="12.9931" stroke="url(#paint3_linear_1040_33137)" stroke-width="0.717179"/>
</g>
<path d="M43.9499 0.293648L43.9698 0.268716L48.8909 5.18985L48.8642 5.21038C48.742 5.30419 48.5627 5.44169 48.3342 5.61639C47.8771 5.96579 47.2233 6.46399 46.4362 7.05907C44.8619 8.24929 42.755 9.8268 40.6239 11.3765C38.4921 12.9265 36.3385 14.447 34.67 15.524C33.8349 16.063 33.1261 16.4879 32.6043 16.7499C32.3421 16.8815 32.1354 16.9677 31.9877 17.0083C31.9297 17.0243 31.887 17.0314 31.8575 17.0334C31.8602 16.9993 31.8699 16.9497 31.8909 16.8823C31.9383 16.7301 32.032 16.5212 32.1709 16.2594C32.4476 15.7378 32.8879 15.0352 33.4426 14.211C34.5508 12.5641 36.1035 10.4489 37.6826 8.35884C39.2612 6.26936 40.8645 4.20731 42.0733 2.66749C42.6777 1.89762 43.1834 1.25838 43.5379 0.811637C43.7152 0.588268 43.8547 0.413027 43.9499 0.293648ZM31.8196 17.0323C31.8195 17.0322 31.8199 17.0323 31.8207 17.0325L31.8196 17.0323Z" fill="url(#paint4_linear_1040_33137)" stroke="url(#paint5_linear_1040_33137)" stroke-width="0.35859"/>
<path d="M4.4128 47.784L4.39181 47.81L-0.530681 42.8875L-0.503967 42.8668C-0.382618 42.7728 -0.204484 42.635 0.0225748 42.4599C0.476696 42.1097 1.1265 41.6105 1.90908 41.0142C3.47435 39.8216 5.57042 38.2413 7.69431 36.6898C9.81885 35.1378 11.9686 33.6165 13.6422 32.5412C14.4798 32.003 15.1931 31.5797 15.7222 31.32C15.988 31.1896 16.1988 31.1047 16.3514 31.0653C16.4282 31.0456 16.4807 31.0399 16.5131 31.0413C16.5135 31.0413 16.5138 31.0414 16.5141 31.0414C16.5141 31.0422 16.5141 31.0431 16.5142 31.044C16.515 31.0771 16.5083 31.1299 16.4872 31.2062C16.4452 31.3581 16.3566 31.567 16.2218 31.8296C15.9533 32.3524 15.5182 33.0556 14.9663 33.8804C13.8637 35.5283 12.3077 37.6423 10.7215 39.7304C9.13581 41.8178 7.5218 43.8769 6.30409 45.4142C5.69527 46.1829 5.18559 46.821 4.82814 47.267C4.64942 47.4899 4.50876 47.6648 4.4128 47.784Z" fill="url(#paint6_linear_1040_33137)" stroke="url(#paint7_linear_1040_33137)" stroke-width="0.35859"/>
</g>
<path d="M60.97 20.8032V8.92196H67.5298C68.8128 8.92196 69.8224 9.21759 70.5587 9.80887C71.3062 10.389 71.6799 11.3038 71.6799 12.5533C71.6799 13.7804 71.3006 14.7064 70.542 15.3311C69.7945 15.9447 68.7905 16.2515 67.5298 16.2515H63.2124V20.8032H60.97ZM67.4127 10.9301H63.2124V14.2434H67.4127C67.9928 14.2434 68.4614 14.1096 68.8184 13.8418C69.1865 13.5629 69.3706 13.1445 69.3706 12.5867C69.3706 11.4823 68.718 10.9301 67.4127 10.9301ZM78.0435 20.9873C76.794 20.9873 75.7788 20.6359 74.9978 19.933C74.2281 19.2302 73.8432 18.2764 73.8432 17.0715V12.3357H75.9852V16.8372C75.9852 17.5066 76.1581 18.0421 76.5039 18.4437C76.8609 18.8342 77.3629 19.0294 78.01 19.0294C78.6571 19.0294 79.1535 18.8342 79.4993 18.4437C79.8563 18.0421 80.0348 17.5066 80.0348 16.8372V12.3357H82.1935V17.0715C82.1935 18.2987 81.8031 19.2581 81.0221 19.9498C80.2524 20.6415 79.2595 20.9873 78.0435 20.9873ZM85.0608 20.8032V8.48687H87.2028V20.8032H85.0608ZM94.2458 17.4899C94.1231 17.4787 93.9669 17.4675 93.7773 17.4564C93.5988 17.4341 93.5039 17.4229 93.4928 17.4229C93.0688 17.3895 92.7007 17.3504 92.3883 17.3058C92.0759 17.25 91.7357 17.1607 91.3675 17.038C91.0105 16.9042 90.7149 16.748 90.4806 16.5695C90.2463 16.3798 90.0455 16.1288 89.8782 15.8164C89.722 15.4929 89.6439 15.1192 89.6439 14.6952C89.6439 14.0817 89.8503 13.5685 90.2631 13.1557C90.6758 12.7429 91.1444 12.464 91.6687 12.319C92.2042 12.174 92.7732 12.1015 93.3756 12.1015C94.0004 12.1015 94.5805 12.1684 95.116 12.3023C95.6515 12.4361 96.1479 12.6927 96.6053 13.072C97.0739 13.4402 97.3807 13.9143 97.5257 14.4944H95.2666C95.0658 14.2044 94.7032 13.9757 94.1789 13.8083C93.9223 13.7526 93.649 13.7247 93.3589 13.7247C93.1246 13.7247 92.9015 13.7414 92.6895 13.7749C92.4887 13.8083 92.2879 13.8976 92.0871 14.0426C91.8974 14.1765 91.8026 14.355 91.8026 14.5781C91.8026 15.0578 92.2042 15.3535 93.0075 15.465L94.4466 15.6156C95.4618 15.7049 96.2539 15.9503 96.8229 16.3519C97.3918 16.7536 97.6763 17.4229 97.6763 18.36C97.6763 18.8621 97.5536 19.2971 97.3082 19.6653C97.0739 20.0335 96.7559 20.3124 96.3543 20.502C95.9527 20.6917 95.5343 20.8255 95.0993 20.9036C94.6753 20.9929 94.2291 21.0375 93.7605 21.0375C92.3772 21.0375 91.2839 20.6972 90.4806 20.0167C90.1348 19.7378 89.8893 19.4533 89.7443 19.1633C89.5881 18.8955 89.4821 18.6501 89.4264 18.427H91.7189C91.8194 18.7393 92.0815 18.9792 92.5055 19.1465C92.9405 19.3027 93.3589 19.3808 93.7605 19.3808C94.9208 19.3808 95.5009 19.0684 95.5009 18.4437C95.5009 17.8971 95.0825 17.5791 94.2458 17.4899ZM106.297 20.8032V19.4645C106.218 19.5872 106.135 19.7155 106.045 19.8494C105.432 20.608 104.562 20.9873 103.435 20.9873C102.208 20.9873 101.237 20.5578 100.523 19.6988C99.8092 18.8397 99.4522 17.7966 99.4522 16.5695C99.4522 15.32 99.8148 14.2713 100.54 13.4235C101.276 12.5756 102.247 12.1517 103.452 12.1517C104.188 12.1517 104.863 12.3469 105.477 12.7373C105.811 12.9828 106.079 13.2728 106.28 13.6075V12.3357H108.422V20.8032H106.297ZM106.313 16.5695C106.313 15.8443 106.101 15.2419 105.677 14.7622C105.265 14.2713 104.707 14.0259 104.004 14.0259C103.279 14.0259 102.699 14.2713 102.264 14.7622C101.84 15.2419 101.628 15.8443 101.628 16.5695C101.628 17.3392 101.845 17.9417 102.28 18.3768C102.492 18.6222 102.743 18.8007 103.033 18.9123C103.323 19.0461 103.647 19.1131 104.004 19.1131C104.707 19.1131 105.265 18.8676 105.677 18.3768C106.101 17.8747 106.313 17.2723 106.313 16.5695ZM113.475 16.3519V20.8032H111.35V12.3357H113.475V13.7581C113.698 13.245 114.055 12.8712 114.546 12.6369C115.048 12.4027 115.606 12.2855 116.219 12.2855H118.194V14.4108H115.935C115.132 14.4108 114.518 14.5502 114.094 14.8291C113.681 15.0969 113.475 15.6045 113.475 16.3519ZM72.0815 34.9589V40.2637C71.4345 40.855 70.6424 41.2956 69.7053 41.5857C68.7682 41.8757 67.8143 42.0208 66.8437 42.0208C64.9137 42.0208 63.3463 41.4574 62.1414 40.3306C60.9366 39.2038 60.3341 37.7033 60.3341 35.8291C60.3341 34.033 60.9087 32.566 62.0577 31.428C63.218 30.279 64.6794 29.7044 66.4421 29.7044C67.2342 29.7044 67.9761 29.816 68.6677 30.0391C69.3706 30.2511 70.0065 30.6081 70.5754 31.1101C71.1556 31.6121 71.5628 32.2313 71.797 32.9676H69.4208C69.1196 32.5436 68.6956 32.2257 68.149 32.0137C67.6023 31.8018 67.0334 31.6958 66.4421 31.6958C65.2707 31.6958 64.3392 32.0918 63.6475 32.8839C62.967 33.676 62.6267 34.6577 62.6267 35.8291C62.6267 37.1009 63.0172 38.1217 63.7981 38.8915C64.5902 39.6501 65.611 40.0294 66.8605 40.0294C68.1546 40.0294 69.1754 39.784 69.9228 39.2931V36.8666H65.7393V34.9589H72.0815ZM77.0984 37.3519V41.8032H74.9731V33.3357H77.0984V34.7581C77.3215 34.245 77.6785 33.8712 78.1694 33.6369C78.6714 33.4027 79.2292 33.2855 79.8428 33.2855H81.8174V35.4108H79.5583C78.7551 35.4108 78.1415 35.5502 77.7175 35.8291C77.3048 36.0969 77.0984 36.6045 77.0984 37.3519ZM87.8175 33.1182C89.1228 33.1182 90.2049 33.5421 91.064 34.39C91.9341 35.2267 92.3692 36.2865 92.3692 37.5695C92.3692 38.8636 91.9286 39.929 91.0472 40.7657C90.177 41.6024 89.1005 42.0208 87.8175 42.0208C86.5123 42.0208 85.4245 41.5968 84.5544 40.749C83.6842 39.9011 83.2491 38.8413 83.2491 37.5695C83.2491 36.2642 83.6842 35.1988 84.5544 34.3732C85.4357 33.5365 86.5234 33.1182 87.8175 33.1182ZM87.8175 40.1131C88.5427 40.1131 89.1228 39.8676 89.5579 39.3768C89.993 38.8859 90.2105 38.2835 90.2105 37.5695C90.2105 36.8555 89.993 36.2475 89.5579 35.7455C89.3348 35.5223 89.0837 35.3438 88.8048 35.21C88.4925 35.0872 88.1634 35.0259 87.8175 35.0259C87.1147 35.0259 86.5346 35.2769 86.0772 35.7789C85.6309 36.2698 85.4078 36.8666 85.4078 37.5695C85.4078 38.2835 85.6365 38.8859 86.0939 39.3768C86.5513 39.8676 87.1259 40.1131 87.8175 40.1131ZM98.8383 41.9873C97.5888 41.9873 96.5736 41.6359 95.7927 40.933C95.0229 40.2302 94.638 39.2764 94.638 38.0715V33.3357H96.78V37.8372C96.78 38.5066 96.9529 39.0421 97.2987 39.4437C97.6557 39.8342 98.1578 40.0294 98.8048 40.0294C99.4519 40.0294 99.9483 39.8342 100.294 39.4437C100.651 39.0421 100.83 38.5066 100.83 37.8372V33.3357H102.988V38.0715C102.988 39.2987 102.598 40.2581 101.817 40.9498C101.047 41.6415 100.054 41.9873 98.8383 41.9873ZM107.931 40.5147V45.3509H105.822V33.3357H107.947V34.6745C107.981 34.5852 108.07 34.4625 108.215 34.3063C108.516 33.927 108.901 33.6425 109.37 33.4529C109.85 33.2521 110.346 33.1517 110.859 33.1517C112.098 33.1517 113.074 33.5812 113.788 34.4402C114.513 35.288 114.875 36.3311 114.875 37.5695C114.875 38.8301 114.507 39.8844 113.771 40.7322C113.046 41.5689 112.075 41.9873 110.859 41.9873C110.268 41.9873 109.705 41.859 109.169 41.6024C108.634 41.3458 108.221 40.9832 107.931 40.5147ZM108.55 35.7622C108.126 36.2419 107.914 36.8443 107.914 37.5695C107.914 38.2946 108.132 38.9026 108.567 39.3935C109.013 39.8732 109.593 40.1131 110.307 40.1131C111.032 40.1131 111.612 39.8732 112.047 39.3935C112.494 38.9026 112.717 38.2946 112.717 37.5695C112.717 36.4427 112.248 35.6562 111.311 35.21C110.999 35.0872 110.664 35.0259 110.307 35.0259C109.571 35.0259 108.985 35.2713 108.55 35.7622Z" fill="url(#paint8_linear_1040_33137)"/>
<defs>
<filter id="filter0_b_1040_33137" x="-3.31125" y="-3.31125" width="56.8251" height="56.825" filterUnits="userSpaceOnUse" color-interpolation-filters="sRGB">
<feFlood flood-opacity="0" result="BackgroundImageFix"/>
<feGaussianBlur in="BackgroundImage" stdDeviation="7.53038"/>
<feComposite in2="SourceAlpha" operator="in" result="effect1_backgroundBlur_1040_33137"/>
<feBlend mode="normal" in="SourceGraphic" in2="effect1_backgroundBlur_1040_33137" result="shape"/>
</filter>
<filter id="filter1_b_1040_33137" x="-3.31125" y="-3.31125" width="56.8251" height="56.825" filterUnits="userSpaceOnUse" color-interpolation-filters="sRGB">
<feFlood flood-opacity="0" result="BackgroundImageFix"/>
<feGaussianBlur in="BackgroundImage" stdDeviation="7.53038"/>
<feComposite in2="SourceAlpha" operator="in" result="effect1_backgroundBlur_1040_33137"/>
<feBlend mode="normal" in="SourceGraphic" in2="effect1_backgroundBlur_1040_33137" result="shape"/>
</filter>
<radialGradient id="paint0_radial_1040_33137" cx="0" cy="0" r="1" gradientUnits="userSpaceOnUse" gradientTransform="translate(25.1014 25.1013) rotate(90) scale(21.8968)">
<stop offset="0.702972" stop-color="#0B111B"/>
<stop offset="1" stop-color="#165170"/>
</radialGradient>
<linearGradient id="paint1_linear_1040_33137" x1="33.3479" y1="14.5966" x2="14.4002" y2="33.5443" gradientUnits="userSpaceOnUse">
<stop stop-color="#04FFFE"/>
<stop offset="1" stop-color="#4A2AC8"/>
</linearGradient>
<linearGradient id="paint2_linear_1040_33137" x1="25.1459" y1="8.07999" x2="25.1459" y2="41.1941" gradientUnits="userSpaceOnUse">
<stop stop-color="white" stop-opacity="0.15"/>
<stop offset="1" stop-opacity="0.15"/>
</linearGradient>
<linearGradient id="paint3_linear_1040_33137" x1="26.2106" y1="41.0383" x2="26.2106" y2="12.3989" gradientUnits="userSpaceOnUse">
<stop stop-color="#04FFFE"/>
<stop offset="1" stop-color="#2AC870" stop-opacity="0"/>
</linearGradient>
<linearGradient id="paint4_linear_1040_33137" x1="46.5976" y1="2.40331" x2="33.903" y2="15.2095" gradientUnits="userSpaceOnUse">
<stop stop-color="#171A27" stop-opacity="0"/>
<stop offset="0.465557" stop-color="#635B9A"/>
<stop offset="1" stop-color="#116576"/>
</linearGradient>
<linearGradient id="paint5_linear_1040_33137" x1="46.5583" y1="2.60367" x2="32.4454" y2="16.5583" gradientUnits="userSpaceOnUse">
<stop offset="0.257339" stop-color="#09ECE1" stop-opacity="0"/>
<stop offset="1" stop-color="#116678"/>
</linearGradient>
<linearGradient id="paint6_linear_1040_33137" x1="1.48306" y1="44.9952" x2="14.4367" y2="32.8543" gradientUnits="userSpaceOnUse">
<stop stop-color="#161926" stop-opacity="0"/>
<stop offset="0.41349" stop-color="#53619A"/>
<stop offset="1" stop-color="#22316C"/>
</linearGradient>
<linearGradient id="paint7_linear_1040_33137" x1="3.15182" y1="44.1565" x2="15.7096" y2="31.354" gradientUnits="userSpaceOnUse">
<stop offset="0.186828" stop-color="#09ECE1" stop-opacity="0"/>
<stop offset="1" stop-color="#22316B"/>
</linearGradient>
<linearGradient id="paint8_linear_1040_33137" x1="51.8301" y1="3.80322" x2="126.155" y2="49.264" gradientUnits="userSpaceOnUse">
<stop stop-color="#2AA2CF"/>
<stop offset="1" stop-color="#A9419E"/>
</linearGradient>
<clipPath id="clip0_1040_33137">
<rect width="50.2025" height="50.2025" fill="white"/>
</clipPath>
</defs>
</svg>
