
<svg width="51" height="51" viewBox="0 0 51 51" fill="none" xmlns="http://www.w3.org/2000/svg">
	<g clip-path="url(#clip0_1572_14882)">
	<circle opacity="0.5" cx="25.1012" cy="25.1013" r="21.5383" fill="url(#paint0_radial_1572_14882)" stroke="#155A75" stroke-width="0.717179"/>
	<g opacity="0.5" filter="url(#filter0_b_1572_14882)">
	<circle cx="25.1012" cy="25.1012" r="13.3517" fill="url(#paint1_linear_1572_14882)"/>
	</g>
	<g filter="url(#filter1_b_1572_14882)">
	<circle cx="25.1012" cy="25.1012" r="13.3517" fill="url(#paint2_linear_1572_14882)" fill-opacity="0.2" style="mix-blend-mode:overlay"/>
	<circle cx="25.1012" cy="25.1012" r="12.9931" stroke="url(#paint3_linear_1572_14882)" stroke-width="0.717179"/>
	</g>
	<path d="M43.9499 0.293648L43.9698 0.268716L48.8909 5.18985L48.8642 5.21038C48.742 5.30419 48.5627 5.44169 48.3342 5.61639C47.8771 5.96579 47.2233 6.46399 46.4362 7.05907C44.8619 8.24929 42.755 9.8268 40.6239 11.3765C38.4921 12.9265 36.3385 14.447 34.67 15.524C33.8349 16.063 33.1261 16.4879 32.6043 16.7499C32.3421 16.8815 32.1354 16.9677 31.9877 17.0083C31.9297 17.0243 31.887 17.0314 31.8575 17.0334C31.8602 16.9993 31.8699 16.9497 31.8909 16.8823C31.9383 16.7301 32.032 16.5212 32.1709 16.2594C32.4476 15.7378 32.8879 15.0352 33.4426 14.211C34.5508 12.5641 36.1035 10.4489 37.6826 8.35884C39.2612 6.26936 40.8645 4.20731 42.0733 2.66749C42.6777 1.89762 43.1834 1.25838 43.5379 0.811637C43.7152 0.588268 43.8547 0.413027 43.9499 0.293648ZM31.8196 17.0323C31.8195 17.0322 31.8199 17.0323 31.8207 17.0325L31.8196 17.0323Z" fill="url(#paint4_linear_1572_14882)" stroke="url(#paint5_linear_1572_14882)" stroke-width="0.35859"/>
	<path d="M4.4128 47.7839L4.39181 47.81L-0.530681 42.8875L-0.503967 42.8667C-0.382618 42.7727 -0.204484 42.6349 0.0225748 42.4598C0.476696 42.1097 1.1265 41.6104 1.90908 41.0141C3.47435 39.8215 5.57042 38.2412 7.69431 36.6897C9.81885 35.1377 11.9686 33.6165 13.6422 32.5411C14.4798 32.0029 15.1931 31.5796 15.7222 31.3199C15.988 31.1895 16.1988 31.1046 16.3514 31.0653C16.4282 31.0455 16.4807 31.0398 16.5131 31.0413C16.5135 31.0413 16.5138 31.0413 16.5141 31.0413C16.5141 31.0422 16.5141 31.043 16.5142 31.0439C16.515 31.0771 16.5083 31.1298 16.4872 31.2062C16.4452 31.3581 16.3566 31.567 16.2218 31.8295C15.9533 32.3523 15.5182 33.0555 14.9663 33.8803C13.8637 35.5283 12.3077 37.6422 10.7215 39.7303C9.13581 41.8177 7.5218 43.8768 6.30409 45.4142C5.69527 46.1828 5.18559 46.821 4.82814 47.2669C4.64942 47.4899 4.50876 47.6648 4.4128 47.7839Z" fill="url(#paint6_linear_1572_14882)" stroke="url(#paint7_linear_1572_14882)" stroke-width="0.35859"/>
	</g>
	<defs>
	<filter id="filter0_b_1572_14882" x="-3.31125" y="-3.31125" width="56.8249" height="56.825" filterUnits="userSpaceOnUse" color-interpolation-filters="sRGB">
	<feFlood flood-opacity="0" result="BackgroundImageFix"/>
	<feGaussianBlur in="BackgroundImage" stdDeviation="7.53038"/>
	<feComposite in2="SourceAlpha" operator="in" result="effect1_backgroundBlur_1572_14882"/>
	<feBlend mode="normal" in="SourceGraphic" in2="effect1_backgroundBlur_1572_14882" result="shape"/>
	</filter>
	<filter id="filter1_b_1572_14882" x="-3.31125" y="-3.31125" width="56.8249" height="56.825" filterUnits="userSpaceOnUse" color-interpolation-filters="sRGB">
	<feFlood flood-opacity="0" result="BackgroundImageFix"/>
	<feGaussianBlur in="BackgroundImage" stdDeviation="7.53038"/>
	<feComposite in2="SourceAlpha" operator="in" result="effect1_backgroundBlur_1572_14882"/>
	<feBlend mode="normal" in="SourceGraphic" in2="effect1_backgroundBlur_1572_14882" result="shape"/>
	</filter>
	<radialGradient id="paint0_radial_1572_14882" cx="0" cy="0" r="1" gradientUnits="userSpaceOnUse" gradientTransform="translate(25.1012 25.1013) rotate(90) scale(21.8968)">
	<stop offset="0.702972" stop-color="#0B111B"/>
	<stop offset="1" stop-color="#165170"/>
	</radialGradient>
	<linearGradient id="paint1_linear_1572_14882" x1="33.3479" y1="14.5966" x2="14.4002" y2="33.5443" gradientUnits="userSpaceOnUse">
	<stop stop-color="#04FFFE"/>
	<stop offset="1" stop-color="#4A2AC8"/>
	</linearGradient>
	<linearGradient id="paint2_linear_1572_14882" x1="25.1459" y1="8.07999" x2="25.1459" y2="41.1941" gradientUnits="userSpaceOnUse">
	<stop stop-color="white" stop-opacity="0.15"/>
	<stop offset="1" stop-opacity="0.15"/>
	</linearGradient>
	<linearGradient id="paint3_linear_1572_14882" x1="26.2106" y1="41.0383" x2="26.2106" y2="12.3989" gradientUnits="userSpaceOnUse">
	<stop stop-color="#04FFFE"/>
	<stop offset="1" stop-color="#2AC870" stop-opacity="0"/>
	</linearGradient>
	<linearGradient id="paint4_linear_1572_14882" x1="46.5976" y1="2.40331" x2="33.903" y2="15.2095" gradientUnits="userSpaceOnUse">
	<stop stop-color="#171A27" stop-opacity="0"/>
	<stop offset="0.465557" stop-color="#635B9A"/>
	<stop offset="1" stop-color="#116576"/>
	</linearGradient>
	<linearGradient id="paint5_linear_1572_14882" x1="46.5583" y1="2.60367" x2="32.4454" y2="16.5583" gradientUnits="userSpaceOnUse">
	<stop offset="0.257339" stop-color="#09ECE1" stop-opacity="0"/>
	<stop offset="1" stop-color="#116678"/>
	</linearGradient>
	<linearGradient id="paint6_linear_1572_14882" x1="1.48306" y1="44.9951" x2="14.4367" y2="32.8542" gradientUnits="userSpaceOnUse">
	<stop stop-color="#161926" stop-opacity="0"/>
	<stop offset="0.41349" stop-color="#53619A"/>
	<stop offset="1" stop-color="#22316C"/>
	</linearGradient>
	<linearGradient id="paint7_linear_1572_14882" x1="3.15182" y1="44.1564" x2="15.7096" y2="31.3539" gradientUnits="userSpaceOnUse">
	<stop offset="0.186828" stop-color="#09ECE1" stop-opacity="0"/>
	<stop offset="1" stop-color="#22316B"/>
	</linearGradient>
	<clipPath id="clip0_1572_14882">
	<rect width="50.2025" height="50.2025" fill="white"/>
	</clipPath>
	</defs>
	</svg>
	